# xmcd
#
# Track frame offsets:
#	150
#	11720
#	22305
#	38407
#	51165
#	65907
#	87105
#	98175
#	108805
#	124872
#	138080
#	149450
#	161465
#	171940
#	182780
#	193335
#
# Disc length: 2730
#
# Revision: 1
# Processed by: cddbd v1.5.1PL0 Copyright (c) Steve Scherf et al.
# Submitted via: dBpowerAMP V4.0
# Normalized: r0:TDELIM( - )
#
DISCID=e10aa810
DTITLE=Various Artist - The Ultimate Classic Country Collection
DYEAR=2000
DGENRE=Country
TTITLE0=Willie Nelson - On the Road Again
TTITLE1=The Statler Brothers - Flowers on the Wall
TTITLE2=Randy Travis - Forever and Ever, Amen
TTITLE3=Patsy Cline - I Fall to Pieces
TTITLE4=Glen Campbell - Rhinestone Cowboy
TTITLE5=Marty Robbins - El Paso
TTITLE6=Conway Twitty - Hello Darlin'
TTITLE7=Buck Owens - Act Naturally
TTITLE8=Kenny Rogers - The Gambler
TTITLE9=Merle Haggard - Okie From Muskogee
TTITLE10=Sonny James - Young Love
TTITLE11=Crystal Gayle - Don't It Make My Brown Eyes Blue
TTITLE12=Ferlin Husky - Wings of a Dove
TTITLE13=The Kendalls - Heaven's Just a Sin Away
TTITLE14=Jim Reeves - He'll Have To Go
TTITLE15=Freddy Fender - Before the Next Teardrop Falls
EXTD=
EXTT0=
EXTT1=
EXTT2=
EXTT3=
EXTT4=
EXTT5=
EXTT6=
EXTT7=
EXTT8=
EXTT9=
EXTT10=
EXTT11=
EXTT12=
EXTT13=
EXTT14=
EXTT15=
PLAYORDER=
